# xmcd
#
# Track frame offsets:
# 150
# 34828
# 66875
# 104590
# 137860
# 168394
# 186848
# 214928
# 245798
# 278901
#
# Disc length: 4189 seconds
#
#
# Revision: 0
# Processed by: cddbd v1.5.1PL0 Copyright (c) Steve Scherf et al.
# Submitted via: FreeRIP 2.942 
#
DISCID=9f105b0a
DTITLE=Varios Artistas - Prelude Gold Series Vol. One
DYEAR=1900
DGENRE=Funk
TTITLE0=Strikers - Body Music
TTITLE1=France Joli - Gonna Get Over You
TTITLE2=Empress - Dyn´ To Be Dancin
TTITLE3=D'Train - You're The One For Me
TTITLE4=Conquest - Give It To Me
TTITLE5=Musique - Push Push In The Bush
TTITLE6=Secreat Weapon - Must Be The Music
TTITLE7=Unlimited Touch - Searchin To Find The One
TTITLE8=Sharon Reed - Can You Mandle It
TTITLE9=Gayle Adams - Love Fever
EXTD=Buena Recopilacion de Exitos \nde la Compañia Prelude Records
EXTT0=
EXTT1=
EXTT2=
EXTT3=
EXTT4=
EXTT5=
EXTT6=
EXTT7=
EXTT8=
EXTT9=
PLAYORDER=
